<svg xmlns="http://www.w3.org/2000/svg" version="1.1" xmlns:xlink="http://www.w3.org/1999/xlink" xmlns:svgjs="http://svgjs.dev/svgjs" width="1000" height="623" viewBox="0 0 1000 623"><g transform="matrix(1,0,0,1,-0.6060606060606233,0.2522267206477409)"><svg viewBox="0 0 396 247" data-background-color="#ffffff" preserveAspectRatio="xMidYMid meet" height="623" width="1000" xmlns="http://www.w3.org/2000/svg" xmlns:xlink="http://www.w3.org/1999/xlink"><g id="tight-bounds" transform="matrix(1,0,0,1,0.2400000000000091,-0.09999999999999432)"><svg viewBox="0 0 395.52 247.2" height="247.2" width="395.52"><g><svg></svg></g><g><svg viewBox="0 0 395.52 247.2" height="247.2" width="395.52"><mask id="889b6706-764c-4071-bb02-03a90f22e399"><rect width="640" height="400" fill="white"></rect><g transform="matrix(1,0,0,1,87.86505793672092,37.08000000000001)"><svg viewBox="0 0 219.78988412655815 173.03999999999996" height="173.03999999999996" width="219.78988412655815"><g><svg viewBox="0 0 219.78988412655815 173.03999999999996" height="173.03999999999996" width="219.78988412655815"><g><svg viewBox="0 0 219.78988412655815 173.03999999999996" height="173.03999999999996" width="219.78988412655815"><g><svg viewBox="0 0 219.78988412655815 173.03999999999996" height="173.03999999999996" width="219.78988412655815"><g id="SvgjsG2018"><svg viewBox="0 0 219.78988412655815 173.03999999999996" height="173.03999999999996" width="219.78988412655815" id="SvgjsSvg2017"><g><svg viewBox="0 0 219.78988412655815 173.03999999999996" height="173.03999999999996" width="219.78988412655815"><g transform="matrix(1,0,0,1,0,0)"><svg width="219.78988412655815" viewBox="-0.48 -34.4 51.839999999999996 41.04" height="173.03999999999996" data-palette-color="#ee3e38"><path d="M3.88 0L3.88-3.91 10.25-3.91 10.25-26.49 3.52-26.49 3.52-30.4 23.51-30.4Q26.32-30.4 28.58-30.3 30.83-30.2 32.67-29.86L32.67-29.86Q34.81-29.44 36.32-28.71 37.82-27.98 38.77-26.94 39.72-25.9 40.15-24.6 40.58-23.29 40.58-21.75L40.58-21.75Q40.58-18.95 38.82-16.87 37.06-14.79 33.52-13.7L33.52-13.7Q33.08-13.55 32.6-13.44 32.13-13.33 31.64-13.21L31.64-13.21Q32.93-12.52 34.23-11.47 35.52-10.42 36.62-9.18 37.72-7.93 38.54-6.58 39.36-5.22 39.7-3.91L39.7-3.91 44.63-3.91 44.63 0 27.39 0 27.39-3.91 33.2-3.91Q32.79-5.22 31.91-6.62 31.03-8.01 29.79-9.23 28.54-10.45 26.97-11.35 25.39-12.26 23.61-12.57L23.61-12.57 15.75-12.57 15.75-3.91 21.7-3.91 21.7 0 3.88 0ZM35.38-12.77L35.38-12.77Q37.01-13.26 38.31-14.14 39.6-15.01 40.49-16.19 41.38-17.36 41.86-18.77 42.33-20.19 42.33-21.73L42.33-21.73Q42.33-22.8 42.11-23.8 41.89-24.8 41.36-25.72 40.82-26.64 39.92-27.49 39.01-28.34 37.67-29.15L37.67-29.15Q39.18-28.59 40.27-27.8 41.36-27 42.05-26.03 42.75-25.05 43.08-23.96 43.41-22.88 43.41-21.73L43.41-21.73Q43.41-20.31 43.03-18.97 42.65-17.63 41.88-16.42 41.11-15.21 39.92-14.21 38.72-13.21 37.11-12.5L37.11-12.5Q37.84-11.91 38.56-11.05 39.28-10.18 39.92-9.19 40.55-8.2 41.06-7.21 41.58-6.23 41.87-5.4L41.87-5.4 40.72-5.4Q40.36-6.35 39.81-7.41 39.26-8.47 38.56-9.47 37.87-10.47 37.06-11.34 36.25-12.21 35.38-12.77ZM15.75-16.48L24.56-16.48Q27.49-16.48 29.42-16.81 31.35-17.14 32.51-17.79 33.67-18.43 34.14-19.38 34.62-20.34 34.62-21.56L34.62-21.56Q34.62-23.07 33.54-24.28 32.47-25.49 30.13-26.07L30.13-26.07Q29.03-26.34 27.64-26.42 26.25-26.49 24.56-26.49L24.56-26.49 15.75-26.49 15.75-16.48ZM17.5-17.94L17.5-24.78 24.56-24.78Q26.56-24.78 27.91-24.69 29.25-24.61 30.18-24.39 31.1-24.17 31.71-23.82 32.32-23.46 32.84-22.92L32.84-22.92Q32.35-23.14 31.68-23.32 31.01-23.49 30.03-23.61 29.05-23.73 27.72-23.79 26.39-23.85 24.56-23.85L24.56-23.85 18.48-23.85 18.48-17.94 17.5-17.94ZM4.83-23.85L4.83-24.78 8.72-24.78 8.72-23.85 4.83-23.85ZM17.5-5.37L17.5-10.86 20.46-10.86Q22.8-10.86 24.62-10.49 26.44-10.11 27.27-9.18L27.27-9.18Q26.59-9.38 25.92-9.52 25.24-9.67 24.4-9.75 23.56-9.84 22.45-9.89 21.34-9.94 19.78-9.94L19.78-9.94 18.48-9.94 18.48-5.37 17.5-5.37ZM28.44 1.71L46.39 1.71 46.39-2.54 47.36-2.54 47.36 2.64 28.44 2.64 28.44 1.71ZM5.44 1.71L23.51 1.71 23.51-2.54 24.49-2.54 24.49 2.64 5.44 2.64 5.44 1.71Z" opacity="1" transform="matrix(1,0,0,1,0,0)" fill="black" class="wordmark-text-0" id="SvgjsPath2016" stroke-width="7" stroke="black" stroke-linejoin="round"></path></svg></g></svg></g></svg></g></svg></g><g></g></svg></g></svg></g></svg></g></mask><g transform="matrix(1,0,0,1,87.86505793672092,37.08000000000001)"><svg viewBox="0 0 219.78988412655815 173.03999999999996" height="173.03999999999996" width="219.78988412655815"><g><svg viewBox="0 0 219.78988412655815 173.03999999999996" height="173.03999999999996" width="219.78988412655815"><g><svg viewBox="0 0 219.78988412655815 173.03999999999996" height="173.03999999999996" width="219.78988412655815"><g><svg viewBox="0 0 219.78988412655815 173.03999999999996" height="173.03999999999996" width="219.78988412655815"><g id="textblocktransform"><svg viewBox="0 0 219.78988412655815 173.03999999999996" height="173.03999999999996" width="219.78988412655815" id="textblock"><g><svg viewBox="0 0 219.78988412655815 173.03999999999996" height="173.03999999999996" width="219.78988412655815"><g transform="matrix(1,0,0,1,0,0)"><svg width="219.78988412655815" viewBox="-0.48 -34.4 51.839999999999996 41.04" height="173.03999999999996" data-palette-color="#ee3e38"><path d="M3.88 0L3.88-3.91 10.25-3.91 10.25-26.49 3.52-26.49 3.52-30.4 23.51-30.4Q26.32-30.4 28.58-30.3 30.83-30.2 32.67-29.86L32.67-29.86Q34.81-29.44 36.32-28.71 37.82-27.98 38.77-26.94 39.72-25.9 40.15-24.6 40.58-23.29 40.58-21.75L40.58-21.75Q40.58-18.95 38.82-16.87 37.06-14.79 33.52-13.7L33.52-13.7Q33.08-13.55 32.6-13.44 32.13-13.33 31.64-13.21L31.64-13.21Q32.93-12.52 34.23-11.47 35.52-10.42 36.62-9.18 37.72-7.93 38.54-6.58 39.36-5.22 39.7-3.91L39.7-3.91 44.63-3.91 44.63 0 27.39 0 27.39-3.91 33.2-3.91Q32.79-5.22 31.91-6.62 31.03-8.01 29.79-9.23 28.54-10.45 26.97-11.35 25.39-12.26 23.61-12.57L23.61-12.57 15.75-12.57 15.75-3.91 21.7-3.91 21.7 0 3.88 0ZM35.38-12.77L35.38-12.77Q37.01-13.26 38.31-14.14 39.6-15.01 40.49-16.19 41.38-17.36 41.86-18.77 42.33-20.19 42.33-21.73L42.33-21.73Q42.33-22.8 42.11-23.8 41.89-24.8 41.36-25.72 40.82-26.64 39.92-27.49 39.01-28.34 37.67-29.15L37.67-29.15Q39.18-28.59 40.27-27.8 41.36-27 42.05-26.03 42.75-25.05 43.08-23.96 43.41-22.88 43.41-21.73L43.41-21.73Q43.41-20.31 43.03-18.97 42.65-17.63 41.88-16.42 41.11-15.21 39.92-14.21 38.72-13.21 37.11-12.5L37.11-12.5Q37.84-11.91 38.56-11.05 39.28-10.18 39.92-9.19 40.55-8.2 41.06-7.21 41.58-6.23 41.87-5.4L41.87-5.4 40.72-5.4Q40.36-6.35 39.81-7.41 39.26-8.47 38.56-9.47 37.87-10.47 37.06-11.34 36.25-12.21 35.38-12.77ZM15.75-16.48L24.56-16.48Q27.49-16.48 29.42-16.81 31.35-17.14 32.51-17.79 33.67-18.43 34.14-19.38 34.62-20.34 34.62-21.56L34.62-21.56Q34.62-23.07 33.54-24.28 32.47-25.49 30.13-26.07L30.13-26.07Q29.03-26.34 27.64-26.42 26.25-26.49 24.56-26.49L24.56-26.49 15.75-26.49 15.75-16.48ZM17.5-17.94L17.5-24.78 24.56-24.78Q26.56-24.78 27.91-24.69 29.25-24.61 30.18-24.39 31.1-24.17 31.71-23.82 32.32-23.46 32.84-22.92L32.84-22.92Q32.35-23.14 31.68-23.32 31.01-23.49 30.03-23.61 29.05-23.73 27.72-23.79 26.39-23.85 24.56-23.85L24.56-23.85 18.48-23.85 18.48-17.94 17.5-17.94ZM4.83-23.85L4.83-24.78 8.72-24.78 8.72-23.85 4.83-23.85ZM17.5-5.37L17.5-10.86 20.46-10.86Q22.8-10.86 24.62-10.49 26.44-10.11 27.27-9.18L27.27-9.18Q26.59-9.38 25.92-9.52 25.24-9.67 24.4-9.75 23.56-9.84 22.45-9.89 21.34-9.94 19.78-9.94L19.78-9.94 18.48-9.94 18.48-5.37 17.5-5.37ZM28.44 1.71L46.39 1.71 46.39-2.54 47.36-2.54 47.36 2.64 28.44 2.64 28.44 1.71ZM5.44 1.71L23.51 1.71 23.51-2.54 24.49-2.54 24.49 2.64 5.44 2.64 5.44 1.71Z" opacity="1" transform="matrix(1,0,0,1,0,0)" fill="#ee3e38" class="wordmark-text-0" data-fill-palette-color="primary" id="text-0"></path></svg></g></svg></g></svg></g></svg></g><g></g></svg></g></svg></g></svg></g><g mask="url(#889b6706-764c-4071-bb02-03a90f22e399)"><g transform="matrix(3.5028571428571427, 0, 0, 3.5028571428571427, 127.70285714285714, 1)"><svg xmlns="http://www.w3.org/2000/svg" xmlns:xlink="http://www.w3.org/1999/xlink" version="1.1" x="0" y="0" viewBox="30 15 40 70" enable-background="new 0 0 100 100" xml:space="preserve" height="70" width="40" class="icon-none" data-fill-palette-color="accent" id="none"><circle fill="#5e1914" cx="37.5" cy="22.5" r="7.5" data-fill-palette-color="accent"></circle><circle fill="#5e1914" cx="37.5" cy="50" r="7.5" data-fill-palette-color="accent"></circle><circle fill="#5e1914" cx="37.5" cy="77.5" r="7.5" data-fill-palette-color="accent"></circle><circle fill="#5e1914" cx="62.5" cy="50" r="7.5" data-fill-palette-color="accent"></circle><circle fill="#5e1914" cx="62.5" cy="77.5" r="2.5" data-fill-palette-color="accent"></circle><circle fill="#5e1914" cx="62.5" cy="22.5" r="2.5" data-fill-palette-color="accent"></circle></svg></g></g></svg></g><defs></defs></svg><rect width="395.52" height="247.2" fill="none" stroke="none" visibility="hidden"></rect></g></svg></g></svg>